<svg xmlns="http://www.w3.org/2000/svg" version="1.1">
  <rect width="500" height="300" fill="#0066FF" />
  
  <circle cx="20.65793891505862" cy="16.235085169620206" r="2" fill="#FFFFFF" />
  
  <circle cx="94.2974593418513" cy="246.6884977654415" r="2" fill="#FFFFFF" />
  
  <circle cx="260.4450150095749" cy="191.39032754025496" r="2" fill="#FFFFFF" />
  
  <circle cx="351.1658921677881" cy="64.82373612608329" r="2" fill="#FFFFFF" />
  
  <circle cx="379.85308934269" cy="170.46118728742923" r="2" fill="#FFFFFF" />
  
  <circle cx="349.46432303609583" cy="170.8481914260539" r="2" fill="#FFFFFF" />
  
  <circle cx="431.1247999593186" cy="36.21929396115682" r="2" fill="#FFFFFF" />
  
  <circle cx="75.71652661081053" cy="45.75247588972114" r="2" fill="#FFFFFF" />
  
  <circle cx="391.8681834826655" cy="64.10520156928702" r="2" fill="#FFFFFF" />
  
  <circle cx="399.6165015638027" cy="71.07670531912635" r="2" fill="#FFFFFF" />
  
  <circle cx="360.05298870252585" cy="57.76181705052681" r="2" fill="#FFFFFF" />
  
  <circle cx="467.1299052110348" cy="134.64963319834996" r="2" fill="#FFFFFF" />
  
  <circle cx="376.71568915997557" cy="47.10904536443371" r="2" fill="#FFFFFF" />
  
  <circle cx="102.61541472947889" cy="17.254548905679545" r="2" fill="#FFFFFF" />
  
  <circle cx="401.86607781972594" cy="218.2467059073516" r="2" fill="#FFFFFF" />
  
  <circle cx="346.48533564740626" cy="128.89192284952782" r="2" fill="#FFFFFF" />
  
  <circle cx="460.28216825493524" cy="98.81857354698322" r="2" fill="#FFFFFF" />
  
  <circle cx="223.025669373976" cy="4.772583850668134" r="2" fill="#FFFFFF" />
  
  <circle cx="416.75289957823776" cy="83.76889822135857" r="2" fill="#FFFFFF" />
  
  <circle cx="389.08438775106794" cy="88.94221750542063" r="2" fill="#FFFFFF" />
  
  <circle cx="350.36066437506526" cy="174.81557702960762" r="2" fill="#FFFFFF" />
  
  <circle cx="409.50111366618916" cy="106.8269078659074" r="2" fill="#FFFFFF" />
  
  <circle cx="317.0843051557289" cy="227.0430755013554" r="2" fill="#FFFFFF" />
  
  <circle cx="118.9060454494265" cy="95.70752677218" r="2" fill="#FFFFFF" />
  
  <circle cx="379.0484707385419" cy="28.097149230314997" r="2" fill="#FFFFFF" />
  
  <circle cx="358.19198232048205" cy="85.75930885787604" r="2" fill="#FFFFFF" />
  
  <circle cx="434.9415638963488" cy="109.15659112420758" r="2" fill="#FFFFFF" />
  
  <circle cx="346.7814757146719" cy="89.71611008857539" r="2" fill="#FFFFFF" />
  
  <circle cx="402.6785237413321" cy="25.30196192448526" r="2" fill="#FFFFFF" />
  
  <circle cx="156.56488247559128" cy="148.6279098590973" r="2" fill="#FFFFFF" />
  
  <circle cx="411.1851809192817" cy="37.060894393918744" r="2" fill="#FFFFFF" />
  
  <circle cx="332.6895361773429" cy="236.79175572681726" r="2" fill="#FFFFFF" />
  
  <circle cx="252.52729316325494" cy="195.3739953744744" r="2" fill="#FFFFFF" />
  
  <circle cx="82.27361932099072" cy="196.03572264785336" r="2" fill="#FFFFFF" />
  
  <circle cx="417.9239131392199" cy="62.72557260022453" r="2" fill="#FFFFFF" />
  
  <circle cx="236.33112359014828" cy="120.46285203527611" r="2" fill="#FFFFFF" />
  
  <circle cx="305.6911339167362" cy="168.77895636148725" r="2" fill="#FFFFFF" />
  
  <circle cx="490.14078175073786" cy="65.3289070368149" r="2" fill="#FFFFFF" />
  
  <circle cx="296.98556153777463" cy="89.17753577548886" r="2" fill="#FFFFFF" />
  
  <circle cx="74.33556566142988" cy="43.15282212031842" r="2" fill="#FFFFFF" />
  
  <circle cx="351.7728816833522" cy="37.27886835841943" r="2" fill="#FFFFFF" />
  
  <circle cx="285.72380940177396" cy="96.87754512717945" r="2" fill="#FFFFFF" />
  
  <circle cx="205.7749347198969" cy="147.56575223841062" r="2" fill="#FFFFFF" />
  
  <circle cx="350.46390721641984" cy="54.89038805185914" r="2" fill="#FFFFFF" />
  
  <circle cx="423.818736076031" cy="193.96265930715037" r="2" fill="#FFFFFF" />
  
  <circle cx="307.2272091807538" cy="78.76059673319739" r="2" fill="#FFFFFF" />
  
  <circle cx="372.91618873311205" cy="217.44339169814805" r="2" fill="#FFFFFF" />
  
  <circle cx="342.3170214272435" cy="48.66023340756339" r="2" fill="#FFFFFF" />
  
  <circle cx="79.44739542009411" cy="125.08094060616303" r="2" fill="#FFFFFF" />
  
  <circle cx="446.0409873291733" cy="160.2706184305349" r="2" fill="#FFFFFF" />
  
  <circle cx="46.821183223813705" cy="263.82393988184594" r="2" fill="#FFFFFF" />
  
  <circle cx="279.3474716939575" cy="272.03042183998303" r="2" fill="#FFFFFF" />
  
  <circle cx="493.9807797980391" cy="176.24031857681183" r="2" fill="#FFFFFF" />
  
  <circle cx="321.62076533028466" cy="152.79856905564847" r="2" fill="#FFFFFF" />
  
  <circle cx="412.6689148159333" cy="51.59169667735179" r="2" fill="#FFFFFF" />
  
  <circle cx="210.99881703112194" cy="54.832259076877065" r="2" fill="#FFFFFF" />
  
  <circle cx="405.79689976671796" cy="109.38735815057521" r="2" fill="#FFFFFF" />
  
  <circle cx="362.9725292782981" cy="21.18331056155447" r="2" fill="#FFFFFF" />
  
  <circle cx="427.0135624822221" cy="63.70921103896884" r="2" fill="#FFFFFF" />
  
  <circle cx="295.8787195383602" cy="50.517015182450585" r="2" fill="#FFFFFF" />
  
  <circle cx="395.80278002383267" cy="80.81971206556334" r="2" fill="#FFFFFF" />
  
  <circle cx="407.5612675644966" cy="44.40796511407865" r="2" fill="#FFFFFF" />
  
  <circle cx="153.02859429768324" cy="86.44420386041156" r="2" fill="#FFFFFF" />
  
  <circle cx="221.33980794645356" cy="22.307711805134744" r="2" fill="#FFFFFF" />
  
  <circle cx="220.43775607196923" cy="112.70936013195724" r="2" fill="#FFFFFF" />
  
  <circle cx="292.8456539902619" cy="208.53213964343416" r="2" fill="#FFFFFF" />
  
  <circle cx="326.7524038133179" cy="170.0780089264724" r="2" fill="#FFFFFF" />
  
  <circle cx="280.50724615403703" cy="106.14783999304606" r="2" fill="#FFFFFF" />
  
  <circle cx="337.1110466276906" cy="177.77604875560715" r="2" fill="#FFFFFF" />
  
  <circle cx="231.3126213118371" cy="97.22384966662244" r="2" fill="#FFFFFF" />
  
  <circle cx="276.41579438254973" cy="74.15525561631276" r="2" fill="#FFFFFF" />
  
  <circle cx="190.03672316991825" cy="12.367830158445335" r="2" fill="#FFFFFF" />
  
  <circle cx="385.0464273341004" cy="125.38656798983884" r="2" fill="#FFFFFF" />
  
  <circle cx="394.89202333559626" cy="114.46906738868655" r="2" fill="#FFFFFF" />
  
  <circle cx="389.2954193229798" cy="83.89418889837724" r="2" fill="#FFFFFF" />
  
  <circle cx="224.10328134084529" cy="173.9592497004201" r="2" fill="#FFFFFF" />
  
  <circle cx="351.28722253802755" cy="79.36204314693201" r="2" fill="#FFFFFF" />
  
  <circle cx="410.8027849183069" cy="176.72459734925343" r="2" fill="#FFFFFF" />
  
  <circle cx="314.5346706494525" cy="24.395790205072064" r="2" fill="#FFFFFF" />
  
  <circle cx="401.815953855035" cy="154.53452252301508" r="2" fill="#FFFFFF" />
  
  <circle cx="276.0165654096588" cy="99.63016894797721" r="2" fill="#FFFFFF" />
  
  <circle cx="312.1198463389285" cy="130.75298693168594" r="2" fill="#FFFFFF" />
  
  <circle cx="222.07777656005433" cy="224.0011466889108" r="2" fill="#FFFFFF" />
  
  <circle cx="78.01685965399993" cy="103.6296174518672" r="2" fill="#FFFFFF" />
  
  <circle cx="261.5023814694926" cy="111.22484291228741" r="2" fill="#FFFFFF" />
  
  <circle cx="417.66869947732147" cy="69.24654540173799" r="2" fill="#FFFFFF" />
  
  <circle cx="344.63991357459264" cy="60.649520126970195" r="2" fill="#FFFFFF" />
  
  <circle cx="416.7299488154451" cy="26.392939488720845" r="2" fill="#FFFFFF" />
  
  <circle cx="409.8447530475877" cy="56.283186157146446" r="2" fill="#FFFFFF" />
  
  <circle cx="293.30363940814277" cy="106.58361169949289" r="2" fill="#FFFFFF" />
  
  <circle cx="435.6726330458066" cy="140.42645340087907" r="2" fill="#FFFFFF" />
  
  <circle cx="380.61103181391536" cy="77.88857153943813" r="2" fill="#FFFFFF" />
  
  <circle cx="355.56676894412857" cy="80.06347269298034" r="2" fill="#FFFFFF" />
  
  <circle cx="341.4068850858802" cy="120.79287239090839" r="2" fill="#FFFFFF" />
  
  <circle cx="480.9144201518821" cy="180.87100222693783" r="2" fill="#FFFFFF" />
  
  <circle cx="349.2970359326098" cy="129.83594332347113" r="2" fill="#FFFFFF" />
  
  <circle cx="215.63445594213408" cy="114.6798324282327" r="2" fill="#FFFFFF" />
  
  <circle cx="118.43812510557636" cy="89.48295044794308" r="2" fill="#FFFFFF" />
  
  <circle cx="341.4057417708535" cy="81.83717344315004" r="2" fill="#FFFFFF" />
  
  <circle cx="149.13319115017126" cy="31.304912630716444" r="2" fill="#FFFFFF" />
  
  <circle cx="360.00748950584403" cy="82.45462093948147" r="2" fill="#FFFFFF" />
  
  <circle cx="216.2301908299213" cy="65.47385465860985" r="2" fill="#FFFFFF" />
  
  <circle cx="310.1551272090689" cy="32.49265482849221" r="2" fill="#FFFFFF" />
  
  <circle cx="235.8773327430151" cy="222.9267852002633" r="2" fill="#FFFFFF" />
  
  <circle cx="193.48483619144912" cy="97.27991391136993" r="2" fill="#FFFFFF" />
  
  <circle cx="400.47555868581924" cy="67.30381065334228" r="2" fill="#FFFFFF" />
  
  <circle cx="114.54240683663078" cy="93.0492471945837" r="2" fill="#FFFFFF" />
  
  <circle cx="425.30447746766066" cy="111.7261376679201" r="2" fill="#FFFFFF" />
  
  <circle cx="445.91135786167274" cy="162.3452022752633" r="2" fill="#FFFFFF" />
  
  <circle cx="376.4176483670265" cy="120.335293648676" r="2" fill="#FFFFFF" />
  
  <circle cx="354.4930544109511" cy="63.51302702985743" r="2" fill="#FFFFFF" />
  
  <circle cx="404.3861817299975" cy="83.7383743742958" r="2" fill="#FFFFFF" />
  
  <circle cx="383.0168134575229" cy="231.3945831590125" r="2" fill="#FFFFFF" />
  
  <circle cx="274.73304961980847" cy="248.3722853975154" r="2" fill="#FFFFFF" />
  
  <circle cx="300.37100597764487" cy="107.4033495322823" r="2" fill="#FFFFFF" />
  
  <circle cx="423.99307655362657" cy="45.58832721027733" r="2" fill="#FFFFFF" />
  
  <circle cx="278.5603199734641" cy="48.406100117063374" r="2" fill="#FFFFFF" />
  
  <circle cx="129.88360698103958" cy="111.06314460608294" r="2" fill="#FFFFFF" />
  
  <circle cx="422.63964487592904" cy="255.5844921351701" r="2" fill="#FFFFFF" />
  
  <circle cx="266.43843547349513" cy="89.00789541338402" r="2" fill="#FFFFFF" />
  
  <circle cx="80.587986499177" cy="19.57315661613573" r="2" fill="#FFFFFF" />
  
  <circle cx="338.87381318643804" cy="59.33920284219079" r="2" fill="#FFFFFF" />
  
  <circle cx="446.92801227170077" cy="50.53189190463645" r="2" fill="#FFFFFF" />
  
  <circle cx="421.2919159469222" cy="51.17839641497585" r="2" fill="#FFFFFF" />
  
  <circle cx="311.9487661410219" cy="95.13802346909111" r="2" fill="#FFFFFF" />
  
  <circle cx="223.2807484339672" cy="30.81238735517603" r="2" fill="#FFFFFF" />
  
  <circle cx="415.6722360072634" cy="67.43525330442034" r="2" fill="#FFFFFF" />
  
  <circle cx="398.57299741812113" cy="58.68046899582745" r="2" fill="#FFFFFF" />
  
  <circle cx="377.6227200342891" cy="80.93996218172285" r="2" fill="#FFFFFF" />
  
  <circle cx="429.8040604859424" cy="102.73557544288127" r="2" fill="#FFFFFF" />
  
  <circle cx="361.0827553622871" cy="208.10734668063714" r="2" fill="#FFFFFF" />
  
  <circle cx="307.90831591998307" cy="31.4145592800468" r="2" fill="#FFFFFF" />
  
  <circle cx="460.68237159110913" cy="27.79129942336994" r="2" fill="#FFFFFF" />
  
  <circle cx="199.93769358787205" cy="164.48909065028303" r="2" fill="#FFFFFF" />
  
  <circle cx="290.03079013421257" cy="171.98145070229253" r="2" fill="#FFFFFF" />
  
  <circle cx="182.68822015649852" cy="126.46617366329605" r="2" fill="#FFFFFF" />
  
  <circle cx="402.83571958158524" cy="103.1003676461743" r="2" fill="#FFFFFF" />
  
  <circle cx="83.56463190459866" cy="153.53910095567923" r="2" fill="#FFFFFF" />
  
  <circle cx="248.99702056828593" cy="14.611651469513308" r="2" fill="#FFFFFF" />
  
  <circle cx="397.24665646162146" cy="69.07144400514137" r="2" fill="#FFFFFF" />
  
  <circle cx="274.46476356741044" cy="138.9751125176233" r="2" fill="#FFFFFF" />
  
  <circle cx="285.3138742811203" cy="127.65287993224474" r="2" fill="#FFFFFF" />
  
  <circle cx="382.8588227769364" cy="168.0487595075565" r="2" fill="#FFFFFF" />
  
  <circle cx="490.1420949988727" cy="62.12308121454392" r="2" fill="#FFFFFF" />
  
  <circle cx="282.69030404882903" cy="67.3137886183419" r="2" fill="#FFFFFF" />
  
  <circle cx="105.21764304126766" cy="71.98513693617201" r="2" fill="#FFFFFF" />
  
  <circle cx="395.0006318983524" cy="51.40075813675463" r="2" fill="#FFFFFF" />
  
  <circle cx="443.7116757109694" cy="131.87267072595566" r="2" fill="#FFFFFF" />
  
  <circle cx="387.08094882043684" cy="31.716723839175877" r="2" fill="#FFFFFF" />
  
  <circle cx="420.9912390391909" cy="97.72300035754456" r="2" fill="#FFFFFF" />
  
  <circle cx="364.50508994968885" cy="40.82659444319637" r="2" fill="#FFFFFF" />
  
  <circle cx="154.93526006150955" cy="139.96061030056003" r="2" fill="#FFFFFF" />
  
  <circle cx="349.1289930176415" cy="239.73030091678936" r="2" fill="#FFFFFF" />
  
  <circle cx="253.3828721846596" cy="204.17373712447412" r="2" fill="#FFFFFF" />
  
  <circle cx="305.7924611499436" cy="49.26970617534129" r="2" fill="#FFFFFF" />
  
  <circle cx="158.0664614689983" cy="88.95350664362347" r="2" fill="#FFFFFF" />
  
  <circle cx="294.24284662439464" cy="75.34032097847883" r="2" fill="#FFFFFF" />
  
  <circle cx="141.647072811128" cy="236.08997367590123" r="2" fill="#FFFFFF" />
  
  <circle cx="452.94073556090376" cy="149.79011755997269" r="2" fill="#FFFFFF" />
  
  <circle cx="378.1618874516938" cy="65.92163242178806" r="2" fill="#FFFFFF" />
  
  <circle cx="416.99772866950747" cy="254.2731362974249" r="2" fill="#FFFFFF" />
  
  <circle cx="324.36245726104113" cy="183.6761825365506" r="2" fill="#FFFFFF" />
  
  <circle cx="205.74281928416113" cy="213.9960377745342" r="2" fill="#FFFFFF" />
  
  <circle cx="136.76156283713098" cy="19.86709392423955" r="2" fill="#FFFFFF" />
  
  <circle cx="438.493262965057" cy="70.38378511065419" r="2" fill="#FFFFFF" />
  
  <circle cx="147.3156097972129" cy="106.92931017791369" r="2" fill="#FFFFFF" />
  
  <circle cx="246.23719374076234" cy="34.16832981131719" r="2" fill="#FFFFFF" />
  
  <circle cx="405.1658862392966" cy="152.64527661092342" r="2" fill="#FFFFFF" />
  
  <circle cx="175.41715527126883" cy="226.81045956888056" r="2" fill="#FFFFFF" />
  
  <circle cx="241.37098682633123" cy="186.68530528074714" r="2" fill="#FFFFFF" />
  
  <circle cx="313.85847441969054" cy="69.54155328179984" r="2" fill="#FFFFFF" />
  
  <circle cx="479.38484329317646" cy="85.2803279932328" r="2" fill="#FFFFFF" />
  
  <circle cx="295.5643266360182" cy="213.45533305828786" r="2" fill="#FFFFFF" />
  
  <circle cx="303.405494736483" cy="34.751166351184985" r="2" fill="#FFFFFF" />
  
  <circle cx="174.57291809161237" cy="216.3606575884508" r="2" fill="#FFFFFF" />
  
  <circle cx="371.0129708630554" cy="116.5832511917787" r="2" fill="#FFFFFF" />
  
  <circle cx="364.19107767781196" cy="104.47681183338133" r="2" fill="#FFFFFF" />
  
  <circle cx="306.81425971953195" cy="30.526558901690493" r="2" fill="#FFFFFF" />
  
  <circle cx="299.12554299032763" cy="216.34348558384818" r="2" fill="#FFFFFF" />
  
  <circle cx="201.2940557311808" cy="78.45875670960547" r="2" fill="#FFFFFF" />
  
  <circle cx="221.40490496531987" cy="23.268600596631266" r="2" fill="#FFFFFF" />
  
  <circle cx="343.3253731748862" cy="110.71062720565313" r="2" fill="#FFFFFF" />
  
  <circle cx="363.15893273501564" cy="271.5656017860454" r="2" fill="#FFFFFF" />
  
  <circle cx="288.5764775433349" cy="116.5750824030091" r="2" fill="#FFFFFF" />
  
  <circle cx="322.4132833307525" cy="19.859440137876895" r="2" fill="#FFFFFF" />
  
  <circle cx="231.52022045561844" cy="51.76743560385863" r="2" fill="#FFFFFF" />
  
  <circle cx="259.92287524995356" cy="195.56402085110406" r="2" fill="#FFFFFF" />
  
  <circle cx="245.6232524626184" cy="174.33484731423252" r="2" fill="#FFFFFF" />
  
  <circle cx="100.23129858463984" cy="164.9282574184697" r="2" fill="#FFFFFF" />
  
  <circle cx="300.174169981612" cy="88.18749408400564" r="2" fill="#FFFFFF" />
  
  <circle cx="253.59462928321557" cy="59.41824169078503" r="2" fill="#FFFFFF" />
  
  <circle cx="406.3084960528519" cy="64.94657866803584" r="2" fill="#FFFFFF" />
  
  <circle cx="420.37186729545886" cy="80.2602246378782" r="2" fill="#FFFFFF" />
  
  <circle cx="91.75580756331681" cy="70.01971637196651" r="2" fill="#FFFFFF" />
  
  <circle cx="365.3211230322102" cy="155.13968159928734" r="2" fill="#FFFFFF" />
  
  <circle cx="227.27104271768027" cy="138.59195286556022" r="2" fill="#FFFFFF" />
  
  <circle cx="369.3876199190739" cy="32.59826040301782" r="2" fill="#FFFFFF" />
  
  <circle cx="286.5916174402332" cy="103.79191382633344" r="2" fill="#FFFFFF" />
  
  <circle cx="470.3907561529902" cy="43.032036228891215" r="2" fill="#FFFFFF" />
  
  <circle cx="348.86701007400524" cy="50.09047135130472" r="2" fill="#FFFFFF" />
  
  <circle cx="318.34068692666716" cy="229.4107478145147" r="2" fill="#FFFFFF" />
  
  <circle cx="138.38835389929645" cy="264.16942503979584" r="2" fill="#FFFFFF" />
  
  <circle cx="292.3704867819019" cy="73.57883043992088" r="2" fill="#FFFFFF" />
  
  <circle cx="281.81801914482537" cy="101.96075038230478" r="2" fill="#FFFFFF" />
  
  <circle cx="465.4331413576338" cy="47.93234911271737" r="2" fill="#FFFFFF" />
  
  <circle cx="386.5280646224917" cy="26.309680672467554" r="2" fill="#FFFFFF" />
  
  <circle cx="360.91298379075937" cy="179.44457340049493" r="2" fill="#FFFFFF" />
  
  <circle cx="281.239324048265" cy="95.85639252402183" r="2" fill="#FFFFFF" />
  
  <circle cx="390.4552948476252" cy="66.76484737711338" r="2" fill="#FFFFFF" />
  
  <circle cx="255.41971319122158" cy="82.4693126615673" r="2" fill="#FFFFFF" />
  
  <circle cx="419.9023938513367" cy="48.722126300598994" r="2" fill="#FFFFFF" />
  
  <circle cx="358.23550559251623" cy="99.7617812709003" r="2" fill="#FFFFFF" />
  
  <circle cx="259.32319397864285" cy="114.05098488588668" r="2" fill="#FFFFFF" />
  
  <circle cx="381.8280875068108" cy="82.28173427840186" r="2" fill="#FFFFFF" />
  
  <circle cx="283.4686533204814" cy="206.58099571645818" r="2" fill="#FFFFFF" />
  
  <circle cx="387.8734985250338" cy="73.89689516505396" r="2" fill="#FFFFFF" />
  
  <circle cx="361.2685503602243" cy="64.55914684290903" r="2" fill="#FFFFFF" />
  
  <circle cx="297.4852804291353" cy="151.17328832910852" r="2" fill="#FFFFFF" />
  
  <circle cx="259.4802807495512" cy="201.78526093073054" r="2" fill="#FFFFFF" />
  
  <circle cx="252.3339018900689" cy="172.44723232593827" r="2" fill="#FFFFFF" />
  
  <circle cx="327.03522574743585" cy="48.10280126080711" r="2" fill="#FFFFFF" />
  
  <circle cx="264.9686338946548" cy="97.05617271042212" r="2" fill="#FFFFFF" />
  
  <circle cx="149.20725947244617" cy="293.96491589754544" r="2" fill="#FFFFFF" />
  
  <circle cx="350.67713694044545" cy="64.17811349085693" r="2" fill="#FFFFFF" />
  
  <circle cx="198.26321154867028" cy="217.65735350832523" r="2" fill="#FFFFFF" />
  
  <circle cx="117.91465901652387" cy="94.06717622758714" r="2" fill="#FFFFFF" />
  
  <circle cx="232.17247252462656" cy="32.003478298602495" r="2" fill="#FFFFFF" />
  
  <circle cx="428.2769120085482" cy="40.32931024248968" r="2" fill="#FFFFFF" />
  
  <circle cx="378.9726357568071" cy="114.13004098597219" r="2" fill="#FFFFFF" />
  
  <circle cx="352.5892112590719" cy="55.97031015823224" r="2" fill="#FFFFFF" />
  
  <circle cx="442.06393499132105" cy="46.625023971556345" r="2" fill="#FFFFFF" />
  
  <circle cx="139.02818272158197" cy="105.79808006370016" r="2" fill="#FFFFFF" />
  
  <circle cx="396.17210037486194" cy="51.115007275706716" r="2" fill="#FFFFFF" />
  
  <circle cx="180.62859511034392" cy="50.009133225142655" r="2" fill="#FFFFFF" />
  
  <circle cx="316.9794431918376" cy="96.26753020018481" r="2" fill="#FFFFFF" />
  
  <circle cx="275.74493922361887" cy="117.56757289378906" r="2" fill="#FFFFFF" />
  
  <circle cx="422.1881913212169" cy="87.05910903859511" r="2" fill="#FFFFFF" />
  
  <circle cx="243.73031124361094" cy="49.589077370807075" r="2" fill="#FFFFFF" />
  
  <circle cx="423.4364033587549" cy="109.41312989566028" r="2" fill="#FFFFFF" />
  
  <circle cx="355.161963098124" cy="61.110065005886405" r="2" fill="#FFFFFF" />
  
  <circle cx="176.2868973604196" cy="73.02916528051901" r="2" fill="#FFFFFF" />
  
  <circle cx="218.2686466339885" cy="24.18485838050197" r="2" fill="#FFFFFF" />
  
  <circle cx="437.0837525072027" cy="98.88475600809929" r="2" fill="#FFFFFF" />
  
  <circle cx="363.84018513703893" cy="150.4718518655223" r="2" fill="#FFFFFF" />
  
  <circle cx="319.875438597363" cy="83.07174990381499" r="2" fill="#FFFFFF" />
  
  <circle cx="351.4407929975549" cy="218.33942976452903" r="2" fill="#FFFFFF" />
  
  <circle cx="168.9325732690374" cy="143.1238326102077" r="2" fill="#FFFFFF" />
  
  <circle cx="195.81518745837016" cy="65.62410028787744" r="2" fill="#FFFFFF" />
  
  <circle cx="234.8387048010445" cy="274.1656605670599" r="2" fill="#FFFFFF" />
  
  <circle cx="482.68068268229223" cy="190.51707288800367" r="2" fill="#FFFFFF" />
  
  <circle cx="253.72042546586243" cy="197.19923081065357" r="2" fill="#FFFFFF" />
  
  <circle cx="279.21460147897363" cy="251.34139017646038" r="2" fill="#FFFFFF" />
  
  <circle cx="193.0106544724789" cy="143.96266769200207" r="2" fill="#FFFFFF" />
  
  <circle cx="347.9259269950679" cy="47.623278681181944" r="2" fill="#FFFFFF" />
  
  <circle cx="216.71963191867215" cy="75.51703387119576" r="2" fill="#FFFFFF" />
  
  <circle cx="463.0658068003299" cy="149.9501815714874" r="2" fill="#FFFFFF" />
  
  <circle cx="301.4092077695947" cy="91.1210664579298" r="2" fill="#FFFFFF" />
  
  <circle cx="97.24871382963833" cy="129.91371700440197" r="2" fill="#FFFFFF" />
  
  <circle cx="410.3017407255652" cy="73.11387296322371" r="2" fill="#FFFFFF" />
  
  <circle cx="402.1693448675362" cy="49.427921119884324" r="2" fill="#FFFFFF" />
  
  <circle cx="361.5158040055735" cy="61.5094196286149" r="2" fill="#FFFFFF" />
  
  <circle cx="325.10988548329226" cy="70.48463267860535" r="2" fill="#FFFFFF" />
  
  <circle cx="418.49190324911274" cy="50.662741331168974" r="2" fill="#FFFFFF" />
  
  <circle cx="399.7592680547809" cy="71.9702088986386" r="2" fill="#FFFFFF" />
  
  <circle cx="174.60902728457998" cy="23.593992898714333" r="2" fill="#FFFFFF" />
  
  <circle cx="165.52867493577733" cy="148.78697843185986" r="2" fill="#FFFFFF" />
  
  <circle cx="499.5980822556094" cy="158.34348131819027" r="2" fill="#FFFFFF" />
  
  <circle cx="283.410800519685" cy="143.53782879438472" r="2" fill="#FFFFFF" />
  
  <circle cx="296.41931502716324" cy="111.30765301155611" r="2" fill="#FFFFFF" />
  
  <circle cx="350.59394800985683" cy="87.6435549393774" r="2" fill="#FFFFFF" />
  
  <circle cx="351.63270225278353" cy="55.882291387742946" r="2" fill="#FFFFFF" />
  
  <circle cx="235.71024612527208" cy="272.73309826037735" r="2" fill="#FFFFFF" />
  
  <circle cx="126.04736283075141" cy="120.98404805498234" r="2" fill="#FFFFFF" />
  
  <circle cx="377.46791380624194" cy="56.61086781838494" r="2" fill="#FFFFFF" />
  
  <circle cx="204.95153284631186" cy="147.61328496567776" r="2" fill="#FFFFFF" />
  
  <circle cx="375.18236670056314" cy="63.43582979827316" r="2" fill="#FFFFFF" />
  
  <circle cx="258.16753639006976" cy="156.48576895619416" r="2" fill="#FFFFFF" />
  
  <circle cx="299.26854256791063" cy="127.37256958529643" r="2" fill="#FFFFFF" />
  
  <circle cx="170.46320483412902" cy="67.30410749064428" r="2" fill="#FFFFFF" />
  
  <circle cx="203.9119088263284" cy="52.87731313397522" r="2" fill="#FFFFFF" />
  
  <circle cx="389.78388731727466" cy="130.9642588119161" r="2" fill="#FFFFFF" />
  
  <circle cx="478.69601418065497" cy="14.765243643707347" r="2" fill="#FFFFFF" />
  
  <circle cx="427.4736128033507" cy="35.37295295821734" r="2" fill="#FFFFFF" />
  
  <circle cx="224.45135068560523" cy="81.85877597437218" r="2" fill="#FFFFFF" />
  
  <circle cx="421.6968819711666" cy="91.71851915402384" r="2" fill="#FFFFFF" />
  
  <circle cx="463.7975589347486" cy="18.94559946258572" r="2" fill="#FFFFFF" />
  
  <circle cx="346.12465652104703" cy="17.171585368050344" r="2" fill="#FFFFFF" />
  
  <circle cx="433.2964639926901" cy="101.1188397936899" r="2" fill="#FFFFFF" />
  
  <circle cx="343.28910407073977" cy="97.73439473292468" r="2" fill="#FFFFFF" />
  
  <circle cx="394.4645788394123" cy="139.5459676177906" r="2" fill="#FFFFFF" />
  
  <circle cx="292.845565217058" cy="103.58956947155983" r="2" fill="#FFFFFF" />
  
  <circle cx="341.92464055491564" cy="101.08156626938091" r="2" fill="#FFFFFF" />
  
  <circle cx="382.6660698656965" cy="71.72898736700175" r="2" fill="#FFFFFF" />
  
  <circle cx="454.262929877135" cy="44.397634319097875" r="2" fill="#FFFFFF" />
  
  <circle cx="218.65456760110482" cy="63.64197864635225" r="2" fill="#FFFFFF" />
  
  <circle cx="353.32301526314933" cy="72.4168547429345" r="2" fill="#FFFFFF" />
  
  <circle cx="209.18371200772742" cy="147.18175802420498" r="2" fill="#FFFFFF" />
  
  <circle cx="419.84534028772777" cy="84.77959083532957" r="2" fill="#FFFFFF" />
  
  <circle cx="310.54160953514764" cy="73.2864247273544" r="2" fill="#FFFFFF" />
  
  <circle cx="237.86924511253557" cy="158.55407719883002" r="2" fill="#FFFFFF" />
  
  <circle cx="260.92213626804516" cy="56.57253920415778" r="2" fill="#FFFFFF" />
  
  <circle cx="265.47681020562237" cy="40.636205975626154" r="2" fill="#FFFFFF" />
  
  <circle cx="150.14228806161466" cy="259.07493701744403" r="2" fill="#FFFFFF" />
  
  <circle cx="343.4492042064063" cy="94.87695388817168" r="2" fill="#FFFFFF" />
  
  <circle cx="123.11070572731867" cy="157.49940274614522" r="2" fill="#FFFFFF" />
  
  <circle cx="283.70233200539616" cy="53.4003981869792" r="2" fill="#FFFFFF" />
  
  <circle cx="384.5602342952745" cy="82.50896809975019" r="2" fill="#FFFFFF" />
  
  <circle cx="346.4653453233779" cy="89.24941706929017" r="2" fill="#FFFFFF" />
  
  <circle cx="286.8583799729005" cy="49.10428780565891" r="2" fill="#FFFFFF" />
  
  <circle cx="346.9875579107921" cy="43.13414543089121" r="2" fill="#FFFFFF" />
  
  <circle cx="408.7900330571713" cy="86.33566654190516" r="2" fill="#FFFFFF" />
  
  <circle cx="345.05485623617153" cy="60.76978696399668" r="2" fill="#FFFFFF" />
  
  <circle cx="482.7330368060671" cy="34.944510864261474" r="2" fill="#FFFFFF" />
  
  <circle cx="330.30062261590166" cy="215.51441705956202" r="2" fill="#FFFFFF" />
  
  <circle cx="378.84373632187953" cy="51.959001533253385" r="2" fill="#FFFFFF" />
  
  <circle cx="381.2631560462746" cy="91.62928115867209" r="2" fill="#FFFFFF" />
  
  <circle cx="307.9977668735938" cy="151.41151146995477" r="2" fill="#FFFFFF" />
  
  <circle cx="49.12813541175155" cy="270.5087114457929" r="2" fill="#FFFFFF" />
  
  <circle cx="256.2654115115945" cy="211.6378585330149" r="2" fill="#FFFFFF" />
  
  <circle cx="413.6477017378783" cy="70.72702912388378" r="2" fill="#FFFFFF" />
  
  <circle cx="175.62402315137302" cy="126.74999486350198" r="2" fill="#FFFFFF" />
  
  <circle cx="187.62274319759186" cy="49.57786770195576" r="2" fill="#FFFFFF" />
  
  <circle cx="493.48214172447626" cy="123.70780922998726" r="2" fill="#FFFFFF" />
  
  <circle cx="342.20668472407783" cy="49.08277058617934" r="2" fill="#FFFFFF" />
  
  <circle cx="359.5176144876924" cy="96.89106754958581" r="2" fill="#FFFFFF" />
  
  <circle cx="324.74320016076786" cy="136.14795578459353" r="2" fill="#FFFFFF" />
  
  <circle cx="409.8767869126968" cy="109.7986022935761" r="2" fill="#FFFFFF" />
  
  <circle cx="331.71179655051924" cy="117.22856039150571" r="2" fill="#FFFFFF" />
  
  <circle cx="477.05029705402643" cy="204.80037934808814" r="2" fill="#FFFFFF" />
  
  <circle cx="306.42903865628165" cy="112.86203076170527" r="2" fill="#FFFFFF" />
  
  <circle cx="106.97139564055391" cy="185.0646370359284" r="2" fill="#FFFFFF" />
  
  <circle cx="467.13104515858663" cy="82.64269702592055" r="2" fill="#FFFFFF" />
  
  <circle cx="435.7918151018569" cy="27.549231005315903" r="2" fill="#FFFFFF" />
  
  <circle cx="331.5433209033911" cy="130.3238282841105" r="2" fill="#FFFFFF" />
  
  <circle cx="186.91073719013377" cy="182.49538614268326" r="2" fill="#FFFFFF" />
  
  <circle cx="415.44085268165367" cy="98.69413846062241" r="2" fill="#FFFFFF" />
  
  <circle cx="385.8491601801166" cy="74.32690702349761" r="2" fill="#FFFFFF" />
  
  <circle cx="418.94533206912274" cy="187.51062719968752" r="2" fill="#FFFFFF" />
  
  <circle cx="101.6490103041869" cy="217.09015479769624" r="2" fill="#FFFFFF" />
  
  <circle cx="188.3855896923772" cy="153.184178423986" r="2" fill="#FFFFFF" />
  
  <circle cx="366.0441203850734" cy="210.51381549460478" r="2" fill="#FFFFFF" />
  
  <circle cx="219.3195644765492" cy="80.27374530372153" r="2" fill="#FFFFFF" />
  
  <circle cx="40.091164878130456" cy="250.88077818676513" r="2" fill="#FFFFFF" />
  
  <circle cx="364.17994852494553" cy="73.38686088687305" r="2" fill="#FFFFFF" />
  
  <circle cx="431.1090066895575" cy="148.70322927852712" r="2" fill="#FFFFFF" />
  
  <circle cx="159.07531757982886" cy="271.2157511260353" r="2" fill="#FFFFFF" />
  
  <circle cx="399.1478350387193" cy="70.17990675822408" r="2" fill="#FFFFFF" />
  
  <circle cx="230.20367769807547" cy="53.693617857052715" r="2" fill="#FFFFFF" />
  
  <circle cx="455.442756223868" cy="121.77025963531956" r="2" fill="#FFFFFF" />
  
  <circle cx="372.6440902313302" cy="43.01849298137666" r="2" fill="#FFFFFF" />
  
  <circle cx="202.98316013490066" cy="204.25645263675884" r="2" fill="#FFFFFF" />
  
  <circle cx="236.10135998910062" cy="198.95713257582676" r="2" fill="#FFFFFF" />
  
  <circle cx="266.6295664730351" cy="36.15955245686417" r="2" fill="#FFFFFF" />
  
  <circle cx="374.19281090631694" cy="136.24065383473615" r="2" fill="#FFFFFF" />
  
  <circle cx="219.886799871071" cy="135.6000918476219" r="2" fill="#FFFFFF" />
  
  <circle cx="258.33983149397847" cy="125.82617409563463" r="2" fill="#FFFFFF" />
  
  <circle cx="335.3230218086099" cy="66.35514126136941" r="2" fill="#FFFFFF" />
  
  <circle cx="125.3190662528432" cy="67.84112915440842" r="2" fill="#FFFFFF" />
  
  <circle cx="336.1733214290388" cy="77.95886202591628" r="2" fill="#FFFFFF" />
  
  <circle cx="308.1069540441019" cy="119.50704915654617" r="2" fill="#FFFFFF" />
  
  <circle cx="243.69403983827442" cy="76.84323435474596" r="2" fill="#FFFFFF" />
  
  <circle cx="147.6293451434696" cy="40.6701841764012" r="2" fill="#FFFFFF" />
  
  <circle cx="377.85682027838993" cy="108.19331228117932" r="2" fill="#FFFFFF" />
  
  <circle cx="161.19779569589272" cy="17.26804718126329" r="2" fill="#FFFFFF" />
  
  <circle cx="240.4742527932166" cy="36.662128857870435" r="2" fill="#FFFFFF" />
  
  <circle cx="374.5811049030548" cy="83.29927916411626" r="2" fill="#FFFFFF" />
  
  <circle cx="348.3978058475776" cy="70.29158672930556" r="2" fill="#FFFFFF" />
  
  <circle cx="307.1994282695831" cy="128.70036229558508" r="2" fill="#FFFFFF" />
  
  <circle cx="221.60505450608676" cy="160.5345432427533" r="2" fill="#FFFFFF" />
  
  <circle cx="316.82466198172733" cy="190.92711586315414" r="2" fill="#FFFFFF" />
  
  <circle cx="281.5638927551107" cy="50.70416035697036" r="2" fill="#FFFFFF" />
  
  <circle cx="171.6399316298249" cy="123.59980068530211" r="2" fill="#FFFFFF" />
  
  <circle cx="153.49521991836778" cy="39.313816444490676" r="2" fill="#FFFFFF" />
  
  <circle cx="325.14027780055596" cy="60.24516233212717" r="2" fill="#FFFFFF" />
  
  <circle cx="260.06613481952724" cy="100.89879225543261" r="2" fill="#FFFFFF" />
  
  <circle cx="261.52960919112303" cy="159.64401785428274" r="2" fill="#FFFFFF" />
  
  <circle cx="303.0520593196721" cy="49.771365742726715" r="2" fill="#FFFFFF" />
  
  <circle cx="411.7477183533949" cy="24.778687167375345" r="2" fill="#FFFFFF" />
  
  <circle cx="297.1768020260567" cy="274.48312839537317" r="2" fill="#FFFFFF" />
  
  <circle cx="271.94284207336256" cy="194.20056751918415" r="2" fill="#FFFFFF" />
  
  <circle cx="234.97246071374724" cy="113.47041709204522" r="2" fill="#FFFFFF" />
  
  <circle cx="293.9954712668653" cy="292.5085260391845" r="2" fill="#FFFFFF" />
  
  <circle cx="374.65993575397016" cy="60.51561850419573" r="2" fill="#FFFFFF" />
  
  <circle cx="338.8679727900626" cy="225.18955401382843" r="2" fill="#FFFFFF" />
  
  <circle cx="416.9335429458653" cy="63.82840782463433" r="2" fill="#FFFFFF" />
  
  <circle cx="325.1588602366655" cy="57.402835318977694" r="2" fill="#FFFFFF" />
  
  <circle cx="425.95664411896865" cy="61.21045202760088" r="2" fill="#FFFFFF" />
  
  <circle cx="329.3587497340583" cy="204.00214943630726" r="2" fill="#FFFFFF" />
  
  <circle cx="186.69262532621778" cy="109.88190448308357" r="2" fill="#FFFFFF" />
  
  <circle cx="335.9380589083743" cy="166.33153670980363" r="2" fill="#FFFFFF" />
  
  <circle cx="421.4191224336" cy="89.88763714597776" r="2" fill="#FFFFFF" />
  
  <circle cx="446.9180690908409" cy="114.27831412945464" r="2" fill="#FFFFFF" />
  
  <circle cx="321.0809399475955" cy="155.7610142367277" r="2" fill="#FFFFFF" />
  
  <circle cx="399.0045031707635" cy="170.39799559977845" r="2" fill="#FFFFFF" />
  
  <circle cx="299.48829019549987" cy="32.22294675428719" r="2" fill="#FFFFFF" />
  
  <circle cx="250.7533389578212" cy="200.58507961353976" r="2" fill="#FFFFFF" />
  
  <circle cx="388.2644393557495" cy="50.13735939909108" r="2" fill="#FFFFFF" />
  
  <circle cx="347.8938008922595" cy="41.90954650805825" r="2" fill="#FFFFFF" />
  
  <circle cx="294.7596815289793" cy="192.75839430975086" r="2" fill="#FFFFFF" />
  
  <circle cx="407.0669777675387" cy="69.63772052600595" r="2" fill="#FFFFFF" />
  
  <circle cx="354.460589576117" cy="103.77528724584542" r="2" fill="#FFFFFF" />
  
  <circle cx="360.4613970497874" cy="140.56106231606788" r="2" fill="#FFFFFF" />
  
  <circle cx="177.89571465028394" cy="240.76727593773634" r="2" fill="#FFFFFF" />
  
  <circle cx="303.15001007744405" cy="52.215525490404254" r="2" fill="#FFFFFF" />
  
  <circle cx="187.48207716428698" cy="184.9158289544737" r="2" fill="#FFFFFF" />
  
  <circle cx="382.1559085346681" cy="58.20810764227595" r="2" fill="#FFFFFF" />
  
  <circle cx="415.1310679451093" cy="254.9745214204041" r="2" fill="#FFFFFF" />
  
  <circle cx="357.95554363381774" cy="89.24558778879666" r="2" fill="#FFFFFF" />
  
  <circle cx="372.50898704893916" cy="157.7613483389881" r="2" fill="#FFFFFF" />
  
  <circle cx="290.08780500544793" cy="74.64721848599793" r="2" fill="#FFFFFF" />
  
  <circle cx="419.51863953328757" cy="85.29053141054148" r="2" fill="#FFFFFF" />
  
  <circle cx="498.1793633557575" cy="49.9865745375642" r="2" fill="#FFFFFF" />
  
  <circle cx="371.1302619204131" cy="145.438348379115" r="2" fill="#FFFFFF" />
  
  <circle cx="418.8059781622569" cy="90.94968138618482" r="2" fill="#FFFFFF" />
  
  <circle cx="18.670485692853266" cy="166.24966494389614" r="2" fill="#FFFFFF" />
  
  <circle cx="148.88817497416716" cy="58.2730109732809" r="2" fill="#FFFFFF" />
  
  <circle cx="460.4549847602984" cy="134.83572724394247" r="2" fill="#FFFFFF" />
  
  <circle cx="379.05320865007934" cy="49.33578354298778" r="2" fill="#FFFFFF" />
  
  <circle cx="396.12087180901466" cy="7.201172679366983" r="2" fill="#FFFFFF" />
  
  <circle cx="304.9061524641618" cy="81.21543364116215" r="2" fill="#FFFFFF" />
  
  <circle cx="312.37273232632515" cy="56.69630654693788" r="2" fill="#FFFFFF" />
  
  <circle cx="386.35414454084145" cy="135.54537893783356" r="2" fill="#FFFFFF" />
  
  <circle cx="137.30144049003962" cy="262.5523685046874" r="2" fill="#FFFFFF" />
  
  <circle cx="228.53255068859164" cy="69.84544381250048" r="2" fill="#FFFFFF" />
  
  <circle cx="398.73898769014596" cy="211.9907632947387" r="2" fill="#FFFFFF" />
  
  <circle cx="289.95452982195957" cy="19.967071831534362" r="2" fill="#FFFFFF" />
  
  <circle cx="149.80199397240452" cy="278.4741626146462" r="2" fill="#FFFFFF" />
  
  <circle cx="431.7189429482908" cy="61.9172464785417" r="2" fill="#FFFFFF" />
  
  <circle cx="158.2231674240352" cy="94.60230026831755" r="2" fill="#FFFFFF" />
  
  <circle cx="320.8959123642223" cy="82.77806073390478" r="2" fill="#FFFFFF" />
  
  <circle cx="385.1290841043689" cy="20.573264582478938" r="2" fill="#FFFFFF" />
  
  <circle cx="469.9115059651374" cy="58.912501179252395" r="2" fill="#FFFFFF" />
  
  <circle cx="178.39476159191668" cy="24.519693391719137" r="2" fill="#FFFFFF" />
  
  <circle cx="395.7039115358787" cy="50.31459664155025" r="2" fill="#FFFFFF" />
  
  <circle cx="458.740022564756" cy="226.78550126039028" r="2" fill="#FFFFFF" />
  
  <circle cx="299.4979585866391" cy="73.59877554621829" r="2" fill="#FFFFFF" />
  
  <circle cx="420.4543506864328" cy="78.11839150729253" r="2" fill="#FFFFFF" />
  
  <circle cx="296.7209321157083" cy="61.45200137671164" r="2" fill="#FFFFFF" />
  
  <circle cx="312.9348407137297" cy="109.74639630439339" r="2" fill="#FFFFFF" />
  
  <circle cx="226.0505431895939" cy="276.73262172537494" r="2" fill="#FFFFFF" />
  
  <circle cx="377.7407594056661" cy="107.73877904521572" r="2" fill="#FFFFFF" />
  
  <circle cx="236.99272857839924" cy="1.3241100185049992" r="2" fill="#FFFFFF" />
  
  <circle cx="393.759770088836" cy="75.39886326445756" r="2" fill="#FFFFFF" />
  
  <circle cx="297.8510995820733" cy="41.062321462315765" r="2" fill="#FFFFFF" />
  
  <circle cx="352.4854388318306" cy="146.02313890221933" r="2" fill="#FFFFFF" />
  
  <circle cx="193.74155311255888" cy="84.96566671462749" r="2" fill="#FFFFFF" />
  
  <circle cx="270.53895780715294" cy="150.1877774146676" r="2" fill="#FFFFFF" />
  
  <circle cx="300.4118199485523" cy="111.49713009120426" r="2" fill="#FFFFFF" />
  
  <circle cx="187.33778932924272" cy="207.8239495327681" r="2" fill="#FFFFFF" />
  
  <circle cx="418.24234759532374" cy="56.173351701167036" r="2" fill="#FFFFFF" />
  
  <circle cx="472.2074482319713" cy="148.4433721131196" r="2" fill="#FFFFFF" />
  
  <circle cx="297.55014733978123" cy="78.52026120170092" r="2" fill="#FFFFFF" />
  
  <circle cx="378.9656954080825" cy="220.1382441919442" r="2" fill="#FFFFFF" />
  
  <circle cx="364.7435071343803" cy="18.574017392253403" r="2" fill="#FFFFFF" />
  
  <circle cx="68.5746648833515" cy="168.08414403766113" r="2" fill="#FFFFFF" />
  
  <circle cx="415.76802191970813" cy="140.28482928875724" r="2" fill="#FFFFFF" />
  
  <circle cx="409.2616646043622" cy="75.47890356772191" r="2" fill="#FFFFFF" />
  
  <circle cx="190.44464719580668" cy="215.40194328239915" r="2" fill="#FFFFFF" />
  
  <circle cx="194.03382916248012" cy="225.6223094906755" r="2" fill="#FFFFFF" />
  
  <circle cx="345.5137732525942" cy="178.9055722037381" r="2" fill="#FFFFFF" />
  
  <circle cx="289.38800754459226" cy="49.30646418454623" r="2" fill="#FFFFFF" />
  
  <circle cx="253.6519821932162" cy="208.9218296129637" r="2" fill="#FFFFFF" />
  
  <circle cx="387.48437010030676" cy="88.2451031559011" r="2" fill="#FFFFFF" />
  
  <circle cx="384.11389756186827" cy="54.12061617141841" r="2" fill="#FFFFFF" />
  
  <circle cx="380.61804086083714" cy="86.96273339844565" r="2" fill="#FFFFFF" />
  
  <circle cx="308.47411847309485" cy="80.28426262673379" r="2" fill="#FFFFFF" />
  
  <circle cx="202.134303728181" cy="70.02530977793573" r="2" fill="#FFFFFF" />
  
  <circle cx="361.8440097554664" cy="151.973522972704" r="2" fill="#FFFFFF" />
  
  <circle cx="271.02981767068445" cy="195.29508508996608" r="2" fill="#FFFFFF" />
  
  <circle cx="281.8167386415228" cy="253.85632872722616" r="2" fill="#FFFFFF" />
  
  <circle cx="347.49239963031516" cy="52.56656104792936" r="2" fill="#FFFFFF" />
  
  <circle cx="246.87613150733742" cy="31.8434675859358" r="2" fill="#FFFFFF" />
  
  <circle cx="362.111157325508" cy="81.18732467637365" r="2" fill="#FFFFFF" />
  
  <circle cx="451.2022345506463" cy="172.85600242916712" r="2" fill="#FFFFFF" />
  
  <circle cx="228.97456655772874" cy="120.46868974784906" r="2" fill="#FFFFFF" />
  
</svg>
